<svg width="768" height="432" viewBox="0 0 768 432" fill="none" xmlns="http://www.w3.org/2000/svg">
<path d="M292.564 16L479.388 16.369C482.632 16.3741 485.843 17.0187 488.838 18.266C491.833 19.5133 494.552 21.3388 496.842 23.6382C499.131 25.9376 500.945 28.6658 502.18 31.6669C503.415 34.668 504.047 37.8832 504.039 41.1287L503.379 391.357C503.371 394.601 502.725 397.811 501.477 400.805C500.229 403.799 498.404 406.518 496.106 408.806C493.808 411.095 491.082 412.908 488.084 414.142C485.085 415.376 481.873 416.008 478.631 416L291.807 415.631C288.565 415.626 285.355 414.982 282.362 413.736C279.368 412.49 276.649 410.666 274.36 408.369C272.071 406.071 270.257 403.345 269.02 400.347C267.784 397.348 267.151 394.135 267.156 390.891L267.893 40.6432C267.914 34.107 270.521 27.8449 275.144 23.2268C279.768 18.6086 286.031 16.0102 292.564 16Z" fill="black"/>
<path d="M291.3 401.085C288.472 401.075 285.763 399.943 283.769 397.936C281.774 395.93 280.657 393.215 280.662 390.385L281.322 40.1484C281.333 37.3258 282.459 34.6219 284.456 32.6278C286.453 30.6337 289.158 29.5115 291.979 29.5063L478.856 29.8753C480.255 29.8779 481.641 30.1562 482.933 30.6943C484.225 31.2325 485.398 32.0199 486.386 33.0117C487.374 34.0035 488.157 35.1803 488.69 36.4748C489.223 37.7693 489.496 39.1562 489.494 40.5562L488.834 390.793C488.828 393.619 487.704 396.328 485.706 398.326C483.709 400.324 481.001 401.449 478.177 401.454L291.3 401.085Z" fill="white" stroke="black" stroke-miterlimit="10"/>
<path d="M305.078 57.5587C309.955 57.5587 313.909 53.3723 313.909 48.2081C313.909 43.0439 309.955 38.8574 305.078 38.8574C300.201 38.8574 296.247 43.0439 296.247 48.2081C296.247 53.3723 300.201 57.5587 305.078 57.5587Z" stroke="black" stroke-miterlimit="10"/>
<path d="M385.597 387.948C397.647 387.948 407.416 378.18 407.416 366.13C407.416 354.08 397.647 344.312 385.597 344.312C373.548 344.312 363.779 354.08 363.779 366.13C363.779 378.18 373.548 387.948 385.597 387.948Z" fill="black"/>
<path d="M267.156 54.4414H263V114.701H267.156V54.4414Z" fill="black"/>
<path d="M398.065 184.692L447.316 234.182C454.798 223.655 459.49 211.387 460.951 198.535C462.413 185.682 460.594 172.667 455.668 160.716C450.741 148.764 442.869 138.269 432.791 130.219C422.714 122.169 410.763 116.829 398.065 114.701V184.692Z" fill="#37B69F" stroke="black" stroke-miterlimit="10"/>
<path d="M308.714 190.545H385.597" stroke="black" stroke-miterlimit="10"/>
<path d="M398.065 140.675L417.805 120.935" stroke="black" stroke-miterlimit="10"/>
<path d="M398.065 164.571L432.351 130.286" stroke="black" stroke-miterlimit="10"/>
<path d="M400.143 186.39L444.818 141.714" stroke="black" stroke-miterlimit="10"/>
<path d="M411.572 198.857L454.169 156.26" stroke="black" stroke-miterlimit="10"/>
<path d="M424.039 210.286L460.403 173.922" stroke="black" stroke-miterlimit="10"/>
<path d="M435.468 222.753L461.442 196.779" stroke="black" stroke-miterlimit="10"/>
<path d="M385.437 113.662C372.825 113.652 360.406 116.741 349.279 122.657C338.153 128.572 328.663 137.131 321.652 147.574C314.641 158.017 310.324 170.021 309.085 182.524C307.846 195.026 309.723 207.64 314.549 219.247C319.375 230.854 327.001 241.095 336.752 249.064C346.502 257.032 358.076 262.481 370.447 264.927C382.817 267.374 395.603 266.742 407.67 263.089C419.736 259.435 430.712 252.872 439.623 243.982L385.437 190.104V113.662Z" stroke="black" stroke-miterlimit="10"/>
<path d="M280.662 323.532H489.494" stroke="black" stroke-miterlimit="10"/>
</svg>
