<svg width="768" height="432" viewBox="0 0 768 432" fill="none" xmlns="http://www.w3.org/2000/svg">
<path d="M193 127.724V251.89H243.243C243.432 251.884 243.614 251.819 243.764 251.705C243.915 251.59 244.026 251.432 244.082 251.251C244.138 251.071 244.137 250.877 244.077 250.698C244.018 250.518 243.905 250.361 243.753 250.249C240.955 248.403 238.647 245.905 237.029 242.97C235.411 240.034 234.53 236.749 234.462 233.398C234.412 227.959 236.481 222.714 240.23 218.774C243.98 214.834 249.116 212.509 254.551 212.29C259.053 212.154 263.476 213.491 267.149 216.098C270.822 218.705 273.544 222.439 274.901 226.734C276.258 231.029 276.176 235.649 274.669 239.893C273.161 244.138 270.309 247.774 266.546 250.249C266.392 250.362 266.278 250.521 266.22 250.703C266.162 250.885 266.162 251.08 266.221 251.261C266.28 251.443 266.394 251.601 266.548 251.714C266.702 251.827 266.887 251.888 267.078 251.89H336.788V201.714C336.794 201.525 336.859 201.342 336.973 201.192C337.088 201.042 337.247 200.931 337.427 200.875C337.608 200.818 337.801 200.82 337.981 200.879C338.16 200.938 338.317 201.052 338.429 201.204C340.274 204.005 342.771 206.315 345.707 207.937C348.642 209.56 351.927 210.444 355.28 210.516C360.722 210.556 365.966 208.481 369.908 204.729C373.849 200.978 376.181 195.843 376.41 190.406C376.537 185.905 375.194 181.486 372.584 177.818C369.974 174.149 366.239 171.431 361.946 170.076C357.653 168.72 353.035 168.8 348.791 170.304C344.548 171.808 340.91 174.654 338.429 178.411C338.316 178.564 338.157 178.678 337.975 178.737C337.794 178.795 337.598 178.795 337.417 178.736C337.235 178.677 337.077 178.563 336.964 178.409C336.851 178.255 336.79 178.069 336.788 177.878V127.724H267.078C266.881 127.734 266.687 127.678 266.526 127.566C266.364 127.453 266.245 127.29 266.187 127.102C266.128 126.914 266.134 126.712 266.203 126.527C266.272 126.343 266.401 126.187 266.568 126.084C269.366 124.238 271.673 121.739 273.292 118.804C274.91 115.869 275.791 112.584 275.858 109.233C275.909 103.794 273.84 98.5488 270.091 94.6088C266.341 90.6688 261.205 88.3431 255.77 88.1244C251.266 87.9832 246.839 89.3166 243.162 91.9217C239.486 94.5269 236.76 98.2613 235.4 102.557C234.04 106.853 234.12 111.476 235.627 115.723C237.135 119.969 239.988 123.607 243.753 126.084C243.905 126.196 244.018 126.352 244.077 126.532C244.137 126.712 244.138 126.905 244.082 127.086C244.026 127.266 243.915 127.425 243.764 127.539C243.614 127.654 243.432 127.718 243.243 127.724H193Z" fill="white" stroke="black" stroke-miterlimit="10"/>
<path d="M193 251.845V376.011H243.243C243.432 376.005 243.614 375.94 243.764 375.826C243.915 375.711 244.026 375.553 244.082 375.372C244.138 375.192 244.137 374.998 244.077 374.819C244.018 374.639 243.905 374.482 243.753 374.37C240.955 372.524 238.647 370.026 237.029 367.091C235.411 364.155 234.53 360.871 234.462 357.519C234.418 352.084 236.489 346.845 240.238 342.91C243.987 338.974 249.12 336.652 254.551 336.433C259.054 336.288 263.482 337.618 267.16 340.222C270.837 342.826 273.563 346.561 274.921 350.857C276.28 355.154 276.197 359.776 274.685 364.021C273.173 368.266 270.315 371.9 266.546 374.37C266.392 374.484 266.278 374.642 266.22 374.824C266.162 375.006 266.162 375.201 266.221 375.383C266.28 375.564 266.394 375.722 266.548 375.835C266.702 375.948 266.887 376.01 267.078 376.011H336.788V325.879C336.778 325.683 336.834 325.488 336.947 325.327C337.06 325.165 337.223 325.046 337.411 324.988C337.599 324.929 337.801 324.935 337.985 325.004C338.17 325.073 338.326 325.202 338.429 325.369C340.271 328.171 342.768 330.482 345.704 332.101C348.641 333.719 351.928 334.598 355.28 334.66C360.721 334.71 365.968 332.642 369.912 328.893C373.856 325.144 376.186 320.008 376.41 314.571C376.542 310.069 375.202 305.646 372.594 301.974C369.986 298.302 366.252 295.58 361.957 294.221C357.663 292.862 353.043 292.941 348.797 294.444C344.551 295.948 340.911 298.795 338.429 302.554C338.326 302.721 338.17 302.85 337.985 302.919C337.801 302.988 337.599 302.994 337.411 302.935C337.223 302.877 337.06 302.758 336.947 302.596C336.834 302.435 336.778 302.24 336.788 302.044V251.845H267.078C266.883 251.846 266.693 251.784 266.537 251.668C266.38 251.552 266.264 251.389 266.207 251.203C266.15 251.017 266.154 250.817 266.219 250.633C266.284 250.449 266.407 250.291 266.568 250.183C269.366 248.341 271.673 245.847 273.292 242.916C274.91 239.984 275.791 236.702 275.858 233.354C275.914 227.913 273.848 222.665 270.097 218.724C266.346 214.783 261.207 212.459 255.77 212.246C251.266 212.104 246.839 213.438 243.162 216.043C239.486 218.648 236.76 222.382 235.4 226.678C234.04 230.974 234.12 235.597 235.627 239.844C237.135 244.09 239.988 247.728 243.753 250.205C243.905 250.317 244.018 250.473 244.077 250.653C244.137 250.833 244.138 251.026 244.082 251.207C244.026 251.387 243.915 251.546 243.764 251.66C243.614 251.775 243.432 251.839 243.243 251.845H193Z" fill="white" stroke="black" stroke-miterlimit="10"/>
<path d="M480.865 251.845H336.744V301.977C336.734 302.174 336.79 302.368 336.903 302.529C337.015 302.691 337.179 302.81 337.367 302.869C337.555 302.927 337.757 302.921 337.941 302.852C338.125 302.783 338.281 302.655 338.385 302.487C340.227 299.685 342.724 297.375 345.66 295.756C348.597 294.137 351.883 293.259 355.236 293.197C360.675 293.146 365.92 295.215 369.86 298.965C373.8 302.714 376.125 307.85 376.344 313.285C376.485 317.789 375.152 322.216 372.547 325.893C369.942 329.57 366.207 332.295 361.911 333.655C357.615 335.015 352.992 334.935 348.746 333.428C344.499 331.92 340.861 329.067 338.385 325.302C338.273 325.15 338.116 325.037 337.936 324.978C337.757 324.919 337.563 324.917 337.383 324.973C337.202 325.029 337.044 325.14 336.929 325.291C336.815 325.441 336.75 325.624 336.744 325.812V375.944H386.876C387.073 375.939 387.266 375.998 387.426 376.112C387.587 376.226 387.706 376.389 387.766 376.576C387.826 376.764 387.824 376.965 387.759 377.151C387.695 377.337 387.571 377.497 387.408 377.607C384.608 379.446 382.298 381.939 380.679 384.871C379.061 387.804 378.181 391.087 378.118 394.436C378.003 397.208 378.447 399.974 379.422 402.57C380.397 405.167 381.884 407.542 383.794 409.553C385.704 411.564 387.999 413.171 390.542 414.278C393.085 415.385 395.825 415.97 398.598 415.999C401.372 416.027 404.123 415.498 406.688 414.442C409.253 413.387 411.58 411.827 413.531 409.855C415.482 407.883 417.017 405.54 418.044 402.963C419.072 400.387 419.572 397.631 419.514 394.857C419.515 391.435 418.664 388.066 417.039 385.055C415.413 382.043 413.063 379.484 410.201 377.607C410.038 377.497 409.915 377.337 409.85 377.151C409.786 376.965 409.783 376.764 409.843 376.576C409.903 376.389 410.022 376.226 410.183 376.112C410.343 375.998 410.537 375.939 410.733 375.944H480.82V325.879C480.811 325.682 480.866 325.488 480.979 325.327C481.092 325.165 481.255 325.046 481.443 324.987C481.631 324.929 481.833 324.935 482.017 325.004C482.202 325.073 482.358 325.201 482.461 325.369C484.307 328.167 486.805 330.474 489.741 332.093C492.676 333.711 495.961 334.592 499.312 334.659C504.751 334.71 509.996 332.641 513.936 328.891C517.876 325.142 520.202 320.006 520.42 314.571C520.562 310.067 519.228 305.64 516.623 301.963C514.018 298.287 510.284 295.561 505.988 294.201C501.691 292.841 497.069 292.921 492.822 294.428C488.576 295.936 484.938 298.789 482.461 302.554C482.348 302.707 482.189 302.821 482.008 302.88C481.826 302.938 481.631 302.938 481.449 302.879C481.268 302.82 481.109 302.706 480.996 302.552C480.884 302.398 480.822 302.212 480.82 302.021L480.865 251.845Z" fill="white" stroke="black" stroke-miterlimit="10"/>
<path d="M503.059 200.761L532.016 159.808C532.129 159.649 532.187 159.458 532.183 159.264C532.178 159.069 532.112 158.881 531.993 158.727C531.873 158.573 531.708 158.462 531.521 158.409C531.333 158.356 531.134 158.364 530.952 158.433C527.826 159.644 524.452 160.074 521.122 159.688C517.792 159.301 514.606 158.11 511.839 156.216C509.583 154.677 507.653 152.707 506.162 150.419C504.67 148.131 503.645 145.57 503.147 142.885C502.649 140.199 502.687 137.442 503.259 134.771C503.831 132.1 504.926 129.569 506.48 127.323C508.035 125.077 510.018 123.161 512.316 121.685C514.614 120.208 517.181 119.201 519.87 118.721C522.559 118.241 525.316 118.298 527.983 118.888C530.65 119.478 533.173 120.59 535.409 122.159C538.205 124.138 540.465 126.781 541.986 129.85C543.507 132.919 544.241 136.319 544.122 139.742C544.122 139.937 544.184 140.127 544.3 140.284C544.416 140.44 544.579 140.556 544.765 140.613C544.951 140.67 545.151 140.666 545.335 140.601C545.519 140.536 545.676 140.414 545.785 140.252L574.72 99.3217L517.493 58.9456C517.34 58.8324 517.226 58.6737 517.167 58.4921C517.109 58.3104 517.109 58.115 517.168 57.9335C517.227 57.752 517.341 57.5936 517.495 57.4808C517.649 57.368 517.835 57.3064 518.025 57.3049C522.537 57.4743 526.98 56.1634 530.676 53.5721C534.373 50.9808 537.12 47.2514 538.5 42.9529C539.879 38.6543 539.814 34.0226 538.315 29.7643C536.816 25.506 533.966 21.8548 530.198 19.3678C525.635 16.4074 520.097 15.3419 514.761 16.3976C509.425 17.4532 504.71 20.5468 501.618 25.0218C499.724 27.7881 498.533 30.9739 498.146 34.304C497.76 37.6341 498.19 41.0081 499.401 44.1345C499.462 44.3152 499.465 44.5106 499.409 44.6931C499.353 44.8756 499.241 45.0358 499.089 45.1511C498.937 45.2664 498.752 45.3309 498.562 45.3355C498.371 45.34 498.183 45.2845 498.026 45.1766L457.029 16.2415L428.205 57.1718C428.097 57.3293 428.041 57.5167 428.046 57.7075C428.051 57.8983 428.115 58.0828 428.23 58.2349C428.346 58.387 428.506 58.4989 428.688 58.5549C428.871 58.6108 429.066 58.6079 429.247 58.5465C433.443 56.9017 438.061 56.672 442.399 57.8924C446.738 59.1128 450.559 61.7166 453.282 65.3077C456.005 68.8989 457.48 73.281 457.484 77.7878C457.488 82.2945 456.021 86.6792 453.304 90.2753C449.984 94.5789 445.122 97.4241 439.744 98.2101C434.366 98.9962 428.893 97.6616 424.48 94.4881C421.788 92.4938 419.619 89.8766 418.159 86.8608C416.699 83.8449 415.992 80.5202 416.099 77.1714C416.097 76.9806 416.036 76.7951 415.923 76.6412C415.81 76.4873 415.652 76.3728 415.47 76.314C415.289 76.2551 415.093 76.2548 414.912 76.3132C414.73 76.3716 414.571 76.4857 414.458 76.6392L385.634 117.592L503.059 200.761Z" fill="#C1202B" stroke="black" stroke-miterlimit="10"/>
</svg>
